<svg width="61" height="61" fill="none" xmlns="http://www.w3.org/2000/svg"><path d="M61 0L30.5 30.5 0 61V33.797L33.797 0H61z" fill="#D22856"/><path d="M21.953 32.28l-.933.934-5.022-1.204 1.175 5.052-.875.874-1.33-6.037-5.573-1.194.914-.913 4.582 1.053-1.044-4.592.87-.87 1.184 5.554 6.052 1.344zm-6.052-8.08l.769-.769 4.084 4.085a42.206 42.206 0 011.02 1.058c.168.18.318.347.45.498.135.148.238.264.31.348l.038-.038-1.992-9.861.904-.904 7.067 7.067-.768.768-4.037-4.036c-.17-.17-.348-.354-.531-.55l-.542-.58a47.6 47.6 0 01-.454-.513c-.136-.155-.24-.272-.314-.353l-.044.043 2.016 9.895-.909.909-7.067-7.067zm16.75-2.615l-.828.826-6.341-6.341-2.224 2.223-.725-.725 5.264-5.264.725.725-2.214 2.214 6.342 6.342z" fill="#fff"/></svg>